<?xml version="1.0" encoding="iso-8859-1"?>
<!-- Generator: Adobe Illustrator 19.0.0, SVG Export Plug-In . SVG Version: 6.00 Build 0)  -->
<svg version="1.1" id="Layer_1" xmlns="http://www.w3.org/2000/svg" xmlns:xlink="http://www.w3.org/1999/xlink" x="0px" y="0px"
	 viewBox="0 0 330 330" style="enable-background:new 0 0 330 330;" xml:space="preserve">
<g id="XMLID_244_">
	<path id="XMLID_245_" d="M15,285.5h165V315c0,8.284,6.716,15,15,15h120c8.284,0,15-6.716,15-15V215c0-8.284-6.716-15-15-15h-5v-25
		c0-30.327-24.673-55-55-55s-55,24.673-55,55v18.038c-21.634-23.755-52.333-37.538-85-37.538c-63.411,0-115,51.589-115,115
		C0,278.784,6.716,285.5,15,285.5z M230,175c0-13.785,11.215-25,25-25c13.785,0,25,11.215,25,25v25h-50V175z"/>
	<path id="XMLID_309_" d="M52.25,62.75c0,34.601,28.149,62.75,62.75,62.75s62.75-28.149,62.75-62.75S149.601,0,115,0
		S52.25,28.149,52.25,62.75z"/>
</g>
<g>
</g>
<g>
</g>
<g>
</g>
<g>
</g>
<g>
</g>
<g>
</g>
<g>
</g>
<g>
</g>
<g>
</g>
<g>
</g>
<g>
</g>
<g>
</g>
<g>
</g>
<g>
</g>
<g>
</g>
</svg>
