<?xml version="1.0" encoding="iso-8859-1"?>
<!-- Generator: Adobe Illustrator 18.0.0, SVG Export Plug-In . SVG Version: 6.00 Build 0)  -->
<!DOCTYPE svg PUBLIC "-//W3C//DTD SVG 1.1//EN" "http://www.w3.org/Graphics/SVG/1.1/DTD/svg11.dtd">
<svg version="1.1" id="Capa_1" xmlns="http://www.w3.org/2000/svg" xmlns:xlink="http://www.w3.org/1999/xlink" x="0px" y="0px"
	 viewBox="0 0 252.902 252.902" style="enable-background:new 0 0 252.902 252.902;" xml:space="preserve">
<g>
	<path d="M246.5,20.713c-0.029-0.491-0.271-0.872-0.552-1.207c0.456-3.755-1.865-8.424-3.866-10.935
		c-1.928-2.418-4.528-4.208-7.391-5.183c-0.284-0.762-0.826-1.422-1.9-1.459C164.11-0.436,91.385-1.7,22.894,4.67
		c-3.116-1.669-6.805-0.476-9.595,1.398c-2.066,1.388-3.326,3.082-4.16,5.083c-1.014,0.183-1.92,0.913-1.958,2.26
		C5.097,87.558,7.152,161.952,9.309,236.078c0.034,1.17,0.65,1.933,1.446,2.375c8.844,24.038,79.434,10.949,96.487,10.427
		c33.233-1.016,66.576-1.297,99.779-3.012c14.184-0.732,26.493,1.633,33.477-11.95c0.229-0.446,0.313-0.878,0.32-1.295
		c0.165-0.316,0.276-0.678,0.284-1.112c1.184-62.749,6.413-127.153,4.064-190.181C245.909,34.5,246.891,27.453,246.5,20.713z
		 M120.546,243.103c-14.257,0.454-91.287,9.519-105.521-6.304c0.051-0.234,0.134-0.446,0.126-0.721
		c-2.15-73.907-1.861-147.796-3.112-221.708c1.124-1.604,2.86-3.102,4.386-3.982c1.778-1.026,3.791-1.328,5.694-1.998
		c67.807,3.13,138.147,0.392,206.124-1.777c3.882,0.695,7.255,2.338,9.689,5.607c1.168,1.569,1.965,3.361,2.299,5.293
		c0.046,0.268,0.046,0.503,0.073,0.761c-0.13,0.23-0.303,0.431-0.311,0.738c-0.127,4.516,0.053,9.034,0.22,13.554
		c-5.731,65.26-2.789,132.478-4.044,197.785c-0.204,0.202-0.41,0.403-0.566,0.707C225.98,249.937,139.701,242.493,120.546,243.103z"
		/>
	<path d="M219.529,33.817c0.86-1.646,0.088-4.237-2.376-4.364c-37.528-1.939-75.098-2.532-112.67-2.906
		c-19.346-0.193-57.15-7.471-74.037,2.866c-0.405,0.247-0.668,0.684-0.753,1.156c-0.627,0.426-1.09,1.1-1.104,2.085
		c-0.713,50.288-2.891,103.788,6.678,153.358c0.178,0.918,1.166,0.911,1.745,0.423c0.084,0.042,0.172,0.065,0.259,0.102
		c0.207,0.488,0.564,0.912,1.262,0.966c58.516,4.477,120.117,2.622,178.617-1.912c0.877-0.068,1.36-0.596,1.662-1.215
		c1.646,0.836,4.201,0.078,4.269-2.359C224.4,134.258,229.591,80.985,219.529,33.817z M125.616,32.136
		c30.534,0.456,61.026,1.815,91.536,3.022c0.23,0.009,0.403-0.064,0.604-0.098c-2.678,31.938-1.189,64.773-0.382,97.406
		c-4.478-5.131-10.998-8.728-17.404-11.511c-12.014-5.221-27.941-11.196-40.761-5.768c-1.549-0.36-3.33,1.072-2.227,2.718
		c35.59,53.129-93.337,45.772-119.325,43.218c-0.348-42.74-4.25-85.683-3.675-128.467c0.002-0.127-0.051-0.216-0.063-0.334
		C45.36,29.138,120.249,32.056,125.616,32.136z"/>
	<path d="M100.359,64.03c-9.94-5.7-24.373-0.484-26.614,11.189c-0.435,2.269-0.221,4.56,0.277,6.804
		c-0.174,2.261,0.103,4.626,0.976,6.939c4.419,11.705,22.185,17.382,30.801,7.054C113.712,86.53,111.175,70.232,100.359,64.03z"/>
</g>
<g>
</g>
<g>
</g>
<g>
</g>
<g>
</g>
<g>
</g>
<g>
</g>
<g>
</g>
<g>
</g>
<g>
</g>
<g>
</g>
<g>
</g>
<g>
</g>
<g>
</g>
<g>
</g>
<g>
</g>
</svg>
